#!OML:ASF I:\Actors\actors\Patient Classification 2\Patient 1\Session 1\actor1.ASF
:FULLY-SPECIFIED
:DEGREES
363
root -0.823828 18.4787 5.87646 -8.84705 -0.885568 -2.26399
lowerback 4.61792 0.781935 5.85166
upperback 0.943059 1.37676 2.94303
thorax -1.55315 0.666112 -0.327766
lowerneck -9.6644 -2.26185 -0.169487
upperneck 21.0183 -2.41726 -3.23576
head 8.04814 -1.47373 -1.27886
rclavicle 8.94531e-015 -2.54444e-014
rhumerus -46.0141 6.94925 -83.5146
rradius 80.8277
rwrist 12.3019
rhand -18.8723 -41.4442
rfingers 7.12502
rthumb 7.4284 -71.2938
lclavicle 8.94531e-015 -2.54444e-014
lhumerus -46.0079 -8.49333 96.2545
lradius 80.9844
lwrist 21.774
lhand -11.5308 -21.8018
lfingers 7.12502
lthumb 14.5091 7.67083
rfemur 19.1111 3.91062 18.1257
rtibia -1.11319e-014
rfoot -20.2235 -12.3785
rtoes -6.81299
lfemur 4.25192 -4.85507 -12.7503
ltibia 24.1878
lfoot -21.5601 8.53952
ltoes -57.8649
364
root -0.821553 18.4737 5.87788 -9.05963 -1.05 -2.25016
lowerback 4.76162 0.839564 5.89461
upperback 1.0435 1.46129 2.92518
thorax -1.52417 0.710132 -0.376323
lowerneck -9.73479 -2.32282 -0.188029
upperneck 21.3304 -2.51907 -3.11329
head 8.16571 -1.51342 -1.25118
rclavicle 5.1684e-015 -1.11319e-014
rhumerus -45.8447 6.89467 -83.5092
rradius 80.8044
rwrist 12.1451
rhand -18.9582 -41.6815
rfingers 7.12502
rthumb 7.34548 -71.534
lclavicle 5.1684e-015 -1.11319e-014
lhumerus -45.9291 -8.55083 96.2753
lradius 80.8756
lwrist 21.6124
lhand -11.6301 -21.9814
lfingers 7.12502
lthumb 14.4135 7.4981
rfemur 19.3265 4.08071 18.1567
rtibia -6.36111e-015
rfoot -20.2115 -12.3815
rtoes -6.94761
lfemur 4.54108 -4.74022 -12.7624
ltibia 24.1738
lfoot -21.6137 8.54756
ltoes -57.8814
365
root -0.819708 18.4742 5.87832 -9.01645 -1.04389 -2.23078
lowerback 4.69983 0.863376 5.86904
upperback 1.04314 1.48641 2.91923
thorax -1.48921 0.723553 -0.368513
lowerneck -10.0054 -2.41423 0.0569908
upperneck 22.0393 -2.63294 -3.32088
head 8.44468 -1.57259 -1.38939
rclavicle 1.88845e-015 -1.19271e-014
rhumerus -45.6801 6.85591 -83.4718
rradius 80.7946
rwrist 11.8571
rhand -18.7813 -41.829
rfingers 7.12502
rthumb 7.51621 -71.6754
lclavicle 1.88845e-015 -1.19271e-014
lhumerus -45.891 -8.61902 96.3275
lradius 80.7896
lwrist 21.633
lhand -11.6847 -22.0928
lfingers 7.12502
lthumb 14.3608 7.3905
rfemur 19.2779 4.07899 18.1241
rtibia 3.49861e-014
rfoot -20.2078 -12.3813
rtoes -7.01175
lfemur 4.49772 -4.74929 -12.7926
ltibia 24.1678
lfoot -21.6128 8.60685
ltoes -57.9109
366
root -0.818842 18.4799 5.8761 -8.75491 -0.836992 -2.23117
lowerback 4.4733 0.838581 5.78389
upperback 0.948853 1.43629 2.93247
thorax -1.46473 0.698171 -0.301641
lowerneck -10.2341 -2.64467 0.138686
upperneck 22.809 -2.90433 -3.55307
head 8.73813 -1.72165 -1.52753
rclavicle -5.1684e-015 -1.59028e-014
rhumerus -45.5406 6.86227 -83.42
rradius 80.8263
rwrist 11.3452
rhand -18.4925 -41.8356
rfingers 7.12502
rthumb 7.79502 -71.6719
lclavicle -5.1684e-015 -1.59028e-014
lhumerus -45.8941 -8.67401 96.3945
lradius 80.7454
lwrist 21.6994
lhand -11.6538 -21.9578
lfingers 7.12502
lthumb 14.3906 7.52334
rfemur 19.0065 3.87099 18.0569
rtibia -3.97569e-014
rfoot -20.1861 -12.4073
rtoes -7.22529
lfemur 4.15012 -4.91548 -12.8156
ltibia 24.167
lfoot -21.5609 8.60893
ltoes -57.8994
367
root -0.817888 18.4804 5.87612 -8.73435 -0.783213 -2.23866
lowerback 4.43993 0.835678 5.73731
upperback 0.926411 1.4292 2.95117
thorax -1.47121 0.694408 -0.255768
lowerneck -10.4038 -2.93595 -0.33768
upperneck 23.6253 -3.26364 -3.30233
head 9.05911 -1.90892 -1.42035
rclavicle 4.17448e-015 -7.95139e-016
rhumerus -45.3734 6.98333 -83.4025
rradius 80.8542
rwrist 10.6522
rhand -18.1522 -41.9401
rfingers 7.12502
rthumb 8.12344 -71.7639
lclavicle 4.17448e-015 -7.95139e-016
lhumerus -45.9181 -8.70465 96.441
lradius 80.6938
lwrist 21.7144
lhand -11.5773 -21.7356
lfingers 7.12502
lthumb 14.4643 7.74033
rfemur 18.9906 3.81661 18.0528
rtibia 3.18055e-014
rfoot -20.1517 -12.4476
rtoes -7.59751
lfemur 4.10314 -4.97975 -12.8228
ltibia 24.1895
lfoot -21.5769 8.56986
ltoes -57.903
368
root -0.816625 18.4786 5.8765 -8.83867 -0.837366 -2.24926
lowerback 4.4836 0.854293 5.70625
upperback 0.967966 1.45437 2.98853
thorax -1.45337 0.708097 -0.201774
lowerneck -10.7047 -3.08498 -0.925314
upperneck 24.7962 -3.41334 -2.97337
head 9.54461 -2.00082 -1.25596
rclavicle 8.94531e-015 3.65764e-014
rhumerus -45.1228 7.19679 -83.3545
rradius 80.8976
rwrist 9.63586
rhand -17.9892 -42.5757
rfingers 7.12502
rthumb 8.28079 -72.3935
lclavicle 8.94531e-015 3.65764e-014
lhumerus -45.8952 -8.66649 96.4886
lradius 80.5971
lwrist 21.7435
lhand -11.4463 -21.6822
lfingers 7.12502
lthumb 14.5905 7.7846
rfemur 19.0949 3.87129 18.081
rtibia 2.54444e-014
rfoot -20.1677 -12.4552
rtoes -7.64819
lfemur 4.21229 -4.99039 -12.8249
ltibia 24.2312
lfoot -21.6145 8.57916
ltoes -57.9163
369
root -0.814405 18.4821 5.87296 -8.71194 -0.746155 -2.27033
lowerback 4.3406 0.850006 5.66671
upperback 0.946407 1.43707 3.03161
thorax -1.39845 0.700607 -0.132153
lowerneck -10.9824 -3.2495 -1.33019
upperneck 26.0559 -3.56951 -2.85792
head 10.0602 -2.10339 -1.19811
rclavicle 8.34896e-015 2.14687e-014
rhumerus -44.7296 7.44538 -83.2526
rradius 80.9762
rwrist 7.95458
rhand -17.569 -43.1397
rfingers 7.12502
rthumb 8.68629 -72.941
lclavicle 8.34896e-015 2.14687e-014
lhumerus -45.8835 -8.6562 96.5634
lradius 80.51
lwrist 21.8208
lhand -11.3466 -21.6999
lfingers 7.12502
lthumb 14.6865 7.75988
rfemur 18.9451 3.77774 18.0653
rtibia 4.6118e-014
rfoot -20.1857 -12.4772
rtoes -7.60102
lfemur 4.00556 -5.1144 -12.8292
ltibia 24.2861
lfoot -21.5856 8.59308
ltoes -57.8664
370
root -0.814857 18.4846 5.86937 -8.59737 -0.499211 -2.32806
lowerback 4.18475 0.808794 5.62462
upperback 0.924321 1.36969 3.07596
thorax -1.33899 0.668272 -0.0571566
lowerneck -11.1527 -3.52768 -1.70262
upperneck 27.3089 -3.90583 -2.71927
head 10.5636 -2.2833 -1.15804
rclavicle -3.8763e-015 6.36111e-015
rhumerus -44.1532 7.75818 -83.152
rradius 81.1215
rwrist 5.21336
rhand -16.4639 -43.5145
rfingers 7.12502
rthumb 9.75257 -73.2687
lclavicle -3.8763e-015 6.36111e-015
lhumerus -45.9115 -8.79782 96.6722
lradius 80.4352
lwrist 21.8068
lhand -11.5291 -21.4839
lfingers 7.12502
lthumb 14.5107 7.98861
rfemur 18.8467 3.52178 18.0766
rtibia -3.65764e-014
rfoot -20.2122 -12.4722
rtoes -7.51908
lfemur 3.76561 -5.26549 -12.7696
ltibia 24.363
lfoot -21.5358 8.45849
ltoes -57.809
371
root -0.818702 18.4834 5.8657 -8.61904 -0.194757 -2.46742
lowerback 4.12607 0.732815 5.60175
upperback 0.947799 1.263 3.16451
thorax -1.2889 0.616712 0.0531725
lowerneck -11.1948 -3.79611 -1.98112
upperneck 28.5594 -4.2341 -2.66454
head 11.05 -2.45873 -1.16232
rclavicle -2.18663e-015 -1.11319e-014
rhumerus -43.3312 8.21938 -83.0337
rradius 81.3463
rwrist 1.0594
rhand -15.6264 -44.7418
rfingers 7.12502
rthumb 10.5605 -74.4565
lclavicle -2.18663e-015 -1.11319e-014
lhumerus -45.9573 -8.95966 96.8218
lradius 80.3648
lwrist 21.6361
lhand -11.9214 -21.1461
lfingers 7.12502
lthumb 14.1327 8.35327
rfemur 18.921 3.19311 18.1985
rtibia 6.36111e-015
rfoot -20.2717 -12.4071
rtoes -7.21587
lfemur 3.65666 -5.35262 -12.5743
ltibia 24.457
lfoot -21.4737 8.19485
ltoes -57.7904
372
root -0.817677 18.4834 5.85573 -8.60567 -0.0639862 -2.59933
lowerback 4.16769 0.681498 5.66188
upperback 0.9609 1.20151 3.25674
thorax -1.30189 0.585889 0.11729
lowerneck -11.0787 -4.03017 -2.19958
upperneck 29.664 -4.5212 -2.66327
head 11.4579 -2.6144 -1.18592
rclavicle -1.68967e-015 2.38542e-015
rhumerus -42.2006 8.85756 -82.8923
rradius 81.6002
rwrist -4.46739
rhand -15.5613 -45.6442
rfingers 7.12502
rthumb 10.6233 -75.3556
lclavicle -1.68967e-015 2.38542e-015
lhumerus -46.0418 -8.99087 96.9138
lradius 80.3121
lwrist 21.6638
lhand -11.9084 -21.0674
lfingers 7.12502
lthumb 14.1453 8.4311
rfemur 18.8961 3.03839 18.3279
rtibia 7.95139e-015
rfoot -20.2791 -12.4049
rtoes -7.08944
lfemur 3.52301 -5.34703 -12.3871
ltibia 24.5481
lfoot -21.4266 8.01538
ltoes -57.7215
373
root -0.810305 18.4851 5.83995 -8.54877 -0.170773 -2.64817
lowerback 4.30043 0.686655 5.78684
upperback 0.989096 1.22431 3.32259
thorax -1.34502 0.596329 0.112892
lowerneck -10.8971 -4.27642 -2.57676
upperneck 30.6491 -4.86199 -2.4443
head 11.8277 -2.78433 -1.10639
rclavicle 3.47873e-015 -7.15625e-015
rhumerus -40.6055 9.34613 -82.5079
rradius 81.8313
rwrist -9.11073
rhand -13.9613 -46.8816
rfingers 7.12502
rthumb 12.1664 -76.5078
lclavicle 3.47873e-015 -7.15625e-015
lhumerus -46.0728 -8.92132 96.9338
lradius 80.1976
lwrist 21.9617
lhand -11.4715 -21.1868
lfingers 7.12502
lthumb 14.5663 8.28178
rfemur 18.7585 3.13684 18.3821
rtibia -2.70347e-014
rfoot -20.2093 -12.4893
rtoes -7.3169
lfemur 3.38845 -5.28161 -12.3316
ltibia 24.6174
lfoot -21.4187 8.0308
ltoes -57.6869
